<?xml version="1.0" encoding="UTF-8" standalone="no"?>
<svg
   xmlns:dc="http://purl.org/dc/elements/1.1/"
   xmlns:cc="http://creativecommons.org/ns#"
   xmlns:rdf="http://www.w3.org/1999/02/22-rdf-syntax-ns#"
   xmlns:svg="http://www.w3.org/2000/svg"
   xmlns="http://www.w3.org/2000/svg"
   xmlns:sodipodi="http://sodipodi.sourceforge.net/DTD/sodipodi-0.dtd"
   xmlns:inkscape="http://www.inkscape.org/namespaces/inkscape"
   id="svg2"
   sodipodi:docname="screwdriver.svg"
   viewBox="0 0 160 156"
   version="1.1"
   inkscape:version="0.92pre3 15195">
  <defs
     id="defs3671" />
  <sodipodi:namedview
     id="namedview8"
     bordercolor="#666666"
     inkscape:pageshadow="2"
     guidetolerance="10"
     pagecolor="#ffffff"
     gridtolerance="10"
     inkscape:window-maximized="1"
     inkscape:zoom="1.0396203"
     objecttolerance="10"
     borderopacity="1"
     inkscape:current-layer="svg2"
     inkscape:cx="208.52599"
     inkscape:cy="170.24153"
     inkscape:window-y="-8"
     inkscape:window-x="-8"
     inkscape:window-width="1920"
     showgrid="false"
     inkscape:pageopacity="0"
     inkscape:window-height="1017" />
  <path
     id="path4"
     inkscape:connector-curvature="0"
     d="m20 0-2 4 21 12c0 10-4 18-13 23l-21-12-1 2c5 15 15 25 35 25 5 0 20 15 28 23l16-16c-8-8-26-26-26-31 0-18-5-30-37-30zm125 5-20 14-2 8-58 58-8-5-4 4c0 12-14 18-20 18l-33 33c0 10 11 21 21 21l33-33c0-6 6-20 18-20l4-4-5-8 58-58 8-2 14-20-6-6zm-50 68-16 16c12 12 28 28 28 33 0 18 5 30 37 30l2-4-21-12c0-10 4-18 13-23l21 12 1-2c-5-15-15-25-35-25-5 0-18-13-30-25z"
     style="fill:#ffffff;fill-opacity:1;stroke:none" />
  <metadata
     id="metadata6">
    <rdf:RDF>
      <cc:Work>
        <dc:format>image/svg+xml</dc:format>
        <dc:type
           rdf:resource="http://purl.org/dc/dcmitype/StillImage" />
        <cc:license
           rdf:resource="http://creativecommons.org/licenses/publicdomain/" />
        <dc:publisher>
          <cc:Agent
             rdf:about="http://openclipart.org/">
            <dc:title>Openclipart</dc:title>
          </cc:Agent>
        </dc:publisher>
      </cc:Work>
      <cc:License
         rdf:about="http://creativecommons.org/licenses/publicdomain/">
        <cc:permits
           rdf:resource="http://creativecommons.org/ns#Reproduction" />
        <cc:permits
           rdf:resource="http://creativecommons.org/ns#Distribution" />
        <cc:permits
           rdf:resource="http://creativecommons.org/ns#DerivativeWorks" />
      </cc:License>
    </rdf:RDF>
  </metadata>
</svg>
